/* XPM */
static char * bottom_left_active_xpm[] = {
"25 25 6 1",
" 	c None",
".	c #989898",
"+	c #F0F0F0",
"@	c #E0E0E0",
"#	c #D0D0D0",
"$	c #6C6C6C",
".+@#.                    ",
".+@#.                    ",
".+@#.                    ",
".+@#.                    ",
".+@#.                    ",
".+@#.                    ",
".+@#.                    ",
".+@#.                    ",
".+@#.                    ",
".+@#.                    ",
".+@#.                    ",
".+@#.                    ",
".+@#.                    ",
".+@#.                    ",
".+@#.                    ",
".+@#.                    ",
".+@#.                    ",
".+@#.                    ",
".+@#.                    ",
".+@#.                    ",
".+@#.....................",
".+@++++++++++++++++++++++",
".+@@@@@@@@@@@@@@@@@@@@@@@",
".########################",
"$$$$$$$$$$$$$$$$$$$$$$$$$"};
