/* XPM */
static char * close_pressed_xpm[] = {
"13 26 22 1",
" 	c None",
".	c #B38F00",
"+	c #DAB007",
"@	c #DCB30F",
"#	c #DEB617",
"$	c #E0B91F",
"%	c #E2BC27",
"&	c #E4BF2E",
"*	c #E6C236",
"=	c #E8C53E",
"-	c #EAC846",
";	c #ECCB4E",
">	c #EDCE55",
",	c #EFD15D",
"'	c #F1D465",
")	c #F3D76D",
"!	c #F5DA75",
"~	c #F7DD7C",
"{	c #F9E084",
"]	c #FBE48C",
"^	c #FDE794",
"/	c #FFEA9C",
"             ",
"             ",
"             ",
"             ",
"             ",
".............",
".+@#$%&*=-;>.",
".@#$%&*=-;>,.",
".#$%&*=-;>,'.",
".$%&*=-;>,').",
".%&*=-;>,')!.",
".&*=-;>,')!~.",
".*=-;>,')!~{.",
".=-;>,')!~{].",
".-;>,')!~{]^.",
".;>,')!~{]^/.",
".>,')!~{]^//.",
".............",
"             ",
"             ",
"             ",
"             ",
"             ",
"             ",
"             ",
"             "};
