/* XPM */
static char * left_active_xpm[] = {
"5 128 5 1",
" 	c None",
".	c #989898",
"+	c #F0F0F0",
"@	c #E0E0E0",
"#	c #D0D0D0",
".+@#.",
".+@#.",
".+@#.",
".+@#.",
".+@#.",
".+@#.",
".+@#.",
".+@#.",
".+@#.",
".+@#.",
".+@#.",
".+@#.",
".+@#.",
".+@#.",
".+@#.",
".+@#.",
".+@#.",
".+@#.",
".+@#.",
".+@#.",
".+@#.",
".+@#.",
".+@#.",
".+@#.",
".+@#.",
".+@#.",
".+@#.",
".+@#.",
".+@#.",
".+@#.",
".+@#.",
".+@#.",
".+@#.",
".+@#.",
".+@#.",
".+@#.",
".+@#.",
".+@#.",
".+@#.",
".+@#.",
".+@#.",
".+@#.",
".+@#.",
".+@#.",
".+@#.",
".+@#.",
".+@#.",
".+@#.",
".+@#.",
".+@#.",
".+@#.",
".+@#.",
".+@#.",
".+@#.",
".+@#.",
".+@#.",
".+@#.",
".+@#.",
".+@#.",
".+@#.",
".+@#.",
".+@#.",
".+@#.",
".+@#.",
".+@#.",
".+@#.",
".+@#.",
".+@#.",
".+@#.",
".+@#.",
".+@#.",
".+@#.",
".+@#.",
".+@#.",
".+@#.",
".+@#.",
".+@#.",
".+@#.",
".+@#.",
".+@#.",
".+@#.",
".+@#.",
".+@#.",
".+@#.",
".+@#.",
".+@#.",
".+@#.",
".+@#.",
".+@#.",
".+@#.",
".+@#.",
".+@#.",
".+@#.",
".+@#.",
".+@#.",
".+@#.",
".+@#.",
".+@#.",
".+@#.",
".+@#.",
".+@#.",
".+@#.",
".+@#.",
".+@#.",
".+@#.",
".+@#.",
".+@#.",
".+@#.",
".+@#.",
".+@#.",
".+@#.",
".+@#.",
".+@#.",
".+@#.",
".+@#.",
".+@#.",
".+@#.",
".+@#.",
".+@#.",
".+@#.",
".+@#.",
".+@#.",
".+@#.",
".+@#.",
".+@#.",
".+@#.",
".+@#.",
".+@#."};
