/* XPM */
static char * left_inactive_xpm[] = {
"5 128 4 1",
" 	c None",
".	c #989898",
"+	c #F0F0F0",
"@	c #E8E8E8",
".+@@.",
".+@@.",
".+@@.",
".+@@.",
".+@@.",
".+@@.",
".+@@.",
".+@@.",
".+@@.",
".+@@.",
".+@@.",
".+@@.",
".+@@.",
".+@@.",
".+@@.",
".+@@.",
".+@@.",
".+@@.",
".+@@.",
".+@@.",
".+@@.",
".+@@.",
".+@@.",
".+@@.",
".+@@.",
".+@@.",
".+@@.",
".+@@.",
".+@@.",
".+@@.",
".+@@.",
".+@@.",
".+@@.",
".+@@.",
".+@@.",
".+@@.",
".+@@.",
".+@@.",
".+@@.",
".+@@.",
".+@@.",
".+@@.",
".+@@.",
".+@@.",
".+@@.",
".+@@.",
".+@@.",
".+@@.",
".+@@.",
".+@@.",
".+@@.",
".+@@.",
".+@@.",
".+@@.",
".+@@.",
".+@@.",
".+@@.",
".+@@.",
".+@@.",
".+@@.",
".+@@.",
".+@@.",
".+@@.",
".+@@.",
".+@@.",
".+@@.",
".+@@.",
".+@@.",
".+@@.",
".+@@.",
".+@@.",
".+@@.",
".+@@.",
".+@@.",
".+@@.",
".+@@.",
".+@@.",
".+@@.",
".+@@.",
".+@@.",
".+@@.",
".+@@.",
".+@@.",
".+@@.",
".+@@.",
".+@@.",
".+@@.",
".+@@.",
".+@@.",
".+@@.",
".+@@.",
".+@@.",
".+@@.",
".+@@.",
".+@@.",
".+@@.",
".+@@.",
".+@@.",
".+@@.",
".+@@.",
".+@@.",
".+@@.",
".+@@.",
".+@@.",
".+@@.",
".+@@.",
".+@@.",
".+@@.",
".+@@.",
".+@@.",
".+@@.",
".+@@.",
".+@@.",
".+@@.",
".+@@.",
".+@@.",
".+@@.",
".+@@.",
".+@@.",
".+@@.",
".+@@.",
".+@@.",
".+@@.",
".+@@.",
".+@@.",
".+@@.",
".+@@.",
".+@@."};
