/* XPM */
static char * right_inactive_xpm[] = {
"5 128 5 1",
" 	c None",
".	c #989898",
"+	c #F0F0F0",
"@	c #E8E8E8",
"#	c #6C6C6C",
".+@@#",
".+@@#",
".+@@#",
".+@@#",
".+@@#",
".+@@#",
".+@@#",
".+@@#",
".+@@#",
".+@@#",
".+@@#",
".+@@#",
".+@@#",
".+@@#",
".+@@#",
".+@@#",
".+@@#",
".+@@#",
".+@@#",
".+@@#",
".+@@#",
".+@@#",
".+@@#",
".+@@#",
".+@@#",
".+@@#",
".+@@#",
".+@@#",
".+@@#",
".+@@#",
".+@@#",
".+@@#",
".+@@#",
".+@@#",
".+@@#",
".+@@#",
".+@@#",
".+@@#",
".+@@#",
".+@@#",
".+@@#",
".+@@#",
".+@@#",
".+@@#",
".+@@#",
".+@@#",
".+@@#",
".+@@#",
".+@@#",
".+@@#",
".+@@#",
".+@@#",
".+@@#",
".+@@#",
".+@@#",
".+@@#",
".+@@#",
".+@@#",
".+@@#",
".+@@#",
".+@@#",
".+@@#",
".+@@#",
".+@@#",
".+@@#",
".+@@#",
".+@@#",
".+@@#",
".+@@#",
".+@@#",
".+@@#",
".+@@#",
".+@@#",
".+@@#",
".+@@#",
".+@@#",
".+@@#",
".+@@#",
".+@@#",
".+@@#",
".+@@#",
".+@@#",
".+@@#",
".+@@#",
".+@@#",
".+@@#",
".+@@#",
".+@@#",
".+@@#",
".+@@#",
".+@@#",
".+@@#",
".+@@#",
".+@@#",
".+@@#",
".+@@#",
".+@@#",
".+@@#",
".+@@#",
".+@@#",
".+@@#",
".+@@#",
".+@@#",
".+@@#",
".+@@#",
".+@@#",
".+@@#",
".+@@#",
".+@@#",
".+@@#",
".+@@#",
".+@@#",
".+@@#",
".+@@#",
".+@@#",
".+@@#",
".+@@#",
".+@@#",
".+@@#",
".+@@#",
".+@@#",
".+@@#",
".+@@#",
".+@@#",
".+@@#",
".+@@#",
".+@@#",
".+@@#"};
