/* XPM */
static char * top_left_inactive_xpm[] = {
"25 44 16 1",
" 	c None",
".	c #989898",
"+	c #FAFAFA",
"@	c #F4F4F4",
"#	c #F3F3F3",
"$	c #F2F2F2",
"%	c #F1F1F1",
"&	c #F0F0F0",
"*	c #EFEFEF",
"=	c #EEEEEE",
"-	c #EDEDED",
";	c #ECECEC",
">	c #EBEBEB",
",	c #EAEAEA",
"'	c #E9E9E9",
")	c #E8E8E8",
".........................",
".++++++++++++++++++++++++",
".+@@@@@@@@@@@@@@@@@@@@@@@",
".+#######################",
".+$$$$$$$$$$$$$$$$$$$$$$$",
".+$$$$$$$$$$$$$$$$$$$$$$$",
".+%%%%%%%%%%%%%%%%%%%%%%%",
".+&&&&&&&&&&&&&&&&&&&&&&&",
".+&&&&&&&&&&&&&&&&&&&&&&&",
".+***********************",
".+=======================",
".+=======================",
".+-----------------------",
".+;;;;;;;;;;;;;;;;;;;;;;;",
".+;;;;;;;;;;;;;;;;;;;;;;;",
".+>>>>>>>>>>>>>>>>>>>>>>>",
".+,,,,,,,,,,,,,,,,,,,,,,,",
".+,,,,,,,,,,,,,,,,,,,,,,,",
".+'''''''''''''''''''''''",
".+)))))))))))))))))))))))",
".+)))))))))))))))))))))))",
".+)))))))))))))))))))))))",
".&)))))))))))))))))))))))",
".&)))))))))))))))))))))))",
".&)))))))))))))))))))))))",
".&)).....................",
".&)).                    ",
".&)).                    ",
".&)).                    ",
".&)).                    ",
".&)).                    ",
".&)).                    ",
".&)).                    ",
".&)).                    ",
".&)).                    ",
".&)).                    ",
".&)).                    ",
".&)).                    ",
".&)).                    ",
".&)).                    ",
".&)).                    ",
".&)).                    ",
".&)).                    ",
".&)).                    "};
