/* XPM */
static char * top_right_inactive_xpm[] = {
"25 47 5 1",
" 	c None",
".	c #989898",
"+	c #6C6C6C",
"@	c #F0F0F0",
"#	c #E8E8E8",
"                         ",
"                         ",
"                         ",
"                         ",
"                         ",
"                         ",
"                         ",
"                         ",
"                         ",
"                         ",
"                         ",
"                         ",
"                         ",
"                         ",
"                         ",
"                         ",
"                         ",
"                         ",
"                         ",
"                         ",
"                         ",
"........................+",
"@@@@@@@@@@@@@@@@@@@@@@@#+",
"########################+",
"#####################@##+",
".....................@##+",
"                    .@##+",
"                    .@##+",
"                    .@##+",
"                    .@##+",
"                    .@##+",
"                    .@##+",
"                    .@##+",
"                    .@##+",
"                    .@##+",
"                    .@##+",
"                    .@##+",
"                    .@##+",
"                    .@##+",
"                    .@##+",
"                    .@##+",
"                    .@##+",
"                    .@##+",
"                    .@##+",
"                    .@##+",
"                    .@##+",
"                    .@##+"};
